<?xml version="1.0" encoding="UTF-8"?><svg id="b" xmlns="http://www.w3.org/2000/svg" viewBox="0 0 843.5 129.6"><g id="c"><path d="M70.9,129.6c-15.6,0-28.6-2.4-39.1-7.2-10.5-4.8-18.4-12-23.8-21.6C2.7,91.2,0,79.2,0,64.7,0,43.6,6.1,27.5,18.2,16.5,30.4,5.5,48,0,71.1,0s24.1,2,33.9,6.1c9.8,4.1,17.5,10,23.1,17.7,5.5,7.7,8.3,17,8.3,28h-34.1c0-5.3-1.3-9.9-3.9-13.7-2.6-3.8-6.3-6.7-10.9-8.7-4.7-2-10.2-3-16.7-3s-14.3,1.4-19.4,4.3c-5.2,2.9-9,6.9-11.6,12.2-2.6,5.3-3.8,11.5-3.8,18.7v6.2c0,7.2,1.3,13.4,3.8,18.7s6.4,9.4,11.5,12.3,11.5,4.4,19.1,4.4,12.9-1,17.8-2.9c4.9-1.9,8.7-4.8,11.3-8.5,2.6-3.7,3.9-8.2,3.9-13.4h33c0,10.7-2.7,19.9-8,27.5-5.3,7.7-12.9,13.5-22.7,17.6-9.8,4.1-21.4,6.1-34.7,6.1Z" style="fill:#fff; stroke-width:0px;"/><path d="M126.7,127.4L181,2.2h40.1l54.5,125.2h-37.6l-8.6-21h-58.5l-8.6,21h-35.7ZM181,80.8h38.3l-10.2-25.9c-.5-1.3-1.1-3-1.8-5-.7-2-1.5-4.2-2.3-6.5-.8-2.3-1.5-4.6-2.3-6.7-.7-2.2-1.3-3.9-1.8-5.3h-1.3c-.7,2.2-1.6,4.8-2.6,7.7-1,3-2,5.9-3,8.7-1,2.8-1.8,5.2-2.6,7.1l-10.4,25.9Z" style="fill:#fff; stroke-width:0px;"/><path d="M274,127.4V2.2h88.4c9.2,0,16.9,1.8,23,5.4,6.1,3.6,10.6,8.4,13.7,14.5,3,6.1,4.6,12.8,4.6,20.1s-1.9,15.2-5.6,21.6c-3.7,6.4-9.1,11.4-16.3,15l25.5,48.7h-39.2l-20.8-42.8h-38.5v42.8h-34.8ZM308.8,58.7h44.5c4.5,0,8.1-1.4,10.8-4.2,2.7-2.8,4-6.6,4-11.5s-.6-5.7-1.8-7.8c-1.2-2.2-2.9-3.9-5.1-5.1-2.2-1.2-4.8-1.8-7.8-1.8h-44.5v30.4Z" style="fill:#fff; stroke-width:0px;"/><path d="M444.3,127.4V30.4h-47.6V2.2h129.8v28.3h-47.4v97h-34.8Z" style="fill:#fff; stroke-width:0px;"/><path d="M527.6,127.4V2.2h34.8v125.2h-34.8Z" style="fill:#fff; stroke-width:0px;"/><path d="M638.8,129.6c-15.6,0-28.6-2.4-39.1-7.2-10.5-4.8-18.4-12-23.8-21.6-5.3-9.6-8-21.6-8-36.1,0-21.1,6.1-37.2,18.2-48.2,12.2-11,29.8-16.5,52.9-16.5s24.1,2,33.9,6.1c9.8,4.1,17.5,10,23.1,17.7,5.5,7.7,8.3,17,8.3,28h-34.1c0-5.3-1.3-9.9-3.9-13.7-2.6-3.8-6.3-6.7-10.9-8.7-4.7-2-10.2-3-16.7-3s-14.3,1.4-19.4,4.3c-5.2,2.9-9,6.9-11.6,12.2-2.6,5.3-3.8,11.5-3.8,18.7v6.2c0,7.2,1.3,13.4,3.8,18.7,2.6,5.3,6.4,9.4,11.5,12.3,5.1,2.9,11.5,4.4,19.1,4.4s12.9-1,17.8-2.9c4.9-1.9,8.7-4.8,11.3-8.5,2.6-3.7,3.9-8.2,3.9-13.4h33c0,10.7-2.7,19.9-8,27.5-5.3,7.7-12.9,13.5-22.7,17.6-9.8,4.1-21.4,6.1-34.7,6.1Z" style="fill:#fff; stroke-width:0px;"/><path d="M694.6,127.4L748.9,2.2h40.1l54.5,125.2h-37.6l-8.6-21h-58.5l-8.6,21h-35.7ZM748.9,80.8h38.3l-10.2-25.9c-.5-1.3-1.1-3-1.8-5s-1.5-4.2-2.3-6.5c-.8-2.3-1.5-4.6-2.3-6.7-.7-2.2-1.3-3.9-1.8-5.3h-1.3c-.7,2.2-1.6,4.8-2.6,7.7-1,3-2,5.9-3,8.7-1,2.8-1.8,5.2-2.6,7.1l-10.4,25.9Z" style="fill:#fff; stroke-width:0px;"/></g></svg>